<?xml version="1.0" standalone="no"?>
<!DOCTYPE svg PUBLIC "-//W3C//DTD SVG 20010904//EN"
 "http://www.w3.org/TR/2001/REC-SVG-20010904/DTD/svg10.dtd">
<svg version="1.0" xmlns="http://www.w3.org/2000/svg"
 width="512.000000pt" height="512.000000pt" viewBox="0 0 512.000000 512.000000"
 preserveAspectRatio="xMidYMid meet">
<metadata>
Created by potrace 1.11, written by Peter Selinger 2001-2013
</metadata>
<g transform="translate(0.000000,512.000000) scale(0.100000,-0.100000)"
fill="#000000" stroke="none">
<path d="M1663 3790 c-161 -29 -295 -124 -362 -257 -43 -86 -51 -124 -61 -276
-6 -105 -13 -145 -27 -170 -15 -26 -53 -49 -199 -122 -99 -49 -200 -104 -225
-121 -72 -51 -148 -139 -182 -211 -30 -64 -32 -75 -32 -178 0 -97 3 -116 25
-160 69 -140 229 -225 455 -241 233 -17 489 85 651 259 79 84 106 139 106 217
0 161 -124 249 -314 222 -108 -16 -179 -52 -265 -137 -40 -39 -73 -77 -73 -84
0 -7 31 18 69 57 122 125 262 172 365 123 80 -39 114 -155 82 -281 -30 -117
-111 -208 -241 -270 -286 -137 -568 -67 -678 167 -36 77 -47 184 -28 273 37
179 151 288 426 411 189 85 227 136 239 321 5 87 39 212 73 266 64 103 160
163 274 170 191 11 288 -79 265 -246 -9 -71 -51 -145 -111 -200 -63 -58 -117
-76 -210 -70 -47 3 -65 1 -65 -8 0 -20 105 -28 179 -15 127 24 241 101 286
196 21 45 31 135 21 191 -11 54 -84 128 -155 155 -65 24 -206 33 -288 19z"/>
<path d="M2765 3587 c-60 -94 -226 -350 -368 -567 -336 -510 -373 -570 -413
-655 -78 -163 -58 -274 52 -291 100 -15 221 48 377 195 48 46 87 81 87 78 0
-3 -5 -18 -11 -34 -49 -129 -18 -224 77 -239 100 -15 221 48 375 194 l85 81 0
-82 c-1 -66 3 -90 21 -123 24 -46 77 -74 136 -74 82 1 220 79 335 190 34 33
64 60 66 60 2 0 -5 -28 -15 -61 -34 -108 1 -174 97 -185 104 -12 204 47 385
226 140 140 364 421 333 420 -5 -1 -37 -40 -70 -88 -166 -235 -400 -464 -531
-519 -45 -18 -98 -20 -118 -3 -57 47 50 254 346 670 41 58 78 111 83 118 5 9
-10 12 -68 12 l-75 0 -42 -72 -43 -72 -13 41 c-18 52 -69 98 -125 114 -186 50
-482 -159 -643 -453 -59 -109 -263 -292 -388 -348 -48 -22 -107 -26 -125 -8
-24 24 -13 84 35 179 25 52 211 339 412 639 200 300 406 609 457 688 l93 142
-82 0 -82 0 -110 -173 c-60 -94 -226 -350 -369 -567 -142 -217 -284 -435 -315
-485 -94 -152 -311 -355 -444 -415 -48 -22 -107 -26 -125 -8 -24 24 -13 84 35
179 25 52 211 339 412 639 200 300 406 609 457 688 l93 142 -82 0 -82 0 -110
-173z m990 -707 c53 -49 42 -158 -29 -304 -55 -114 -120 -200 -223 -296 -225
-210 -369 -196 -333 32 22 146 116 314 250 448 135 135 268 183 335 120z"/>
<path d="M4064 1545 c-254 -55 -427 -309 -385 -562 46 -269 303 -459 564 -415
218 37 382 201 419 420 42 250 -135 503 -391 558 -80 17 -127 17 -207 -1z"/>
</g>
</svg>
